# xmcd
# 
# Track frame offsets:
#     150
#     79275
#     109440
#     126845
#     155457
#     198672
#     234917
#     266245
# 
# Disc length: 3706
# 
# Revision: 5
# Processed by: cddbd v1.5.2PL0 Copyright (c) Steve Scherf et al.
# Submitted via: BonkEnc v1.0.15
# 
DISCID=700e7808
DTITLE=Jan Akkerman - 10.000 Clowns On A Rainy Day
DYEAR=1997
DGENRE=Blues
TTITLE0=On The Table
TTITLE1=Am I Losing You
TTITLE2=Wake Up
TTITLE3=Focus 3
TTITLE4=Weedstalker
TTITLE5=Akkerstones
TTITLE6=Pool House
TTITLE7=Quiet Storm
EXTD=
EXTT0=
EXTT1=
EXTT2=
EXTT3=
EXTT4=
EXTT5=
EXTT6=
EXTT7=
PLAYORDER=
